<?xml version="1.0" encoding="UTF-8"?>
<svg width="225px" height="66px" viewBox="0 0 225 66" version="1.1" xmlns="http://www.w3.org/2000/svg" xmlns:xlink="http://www.w3.org/1999/xlink">
    <!-- Generator: Sketch 51.1 (57501) - http://www.bohemiancoding.com/sketch -->
    <title>Spillemyndigheden_Logo_RGB_Blue</title>
    <desc>Created with Sketch.</desc>
    <defs>
        <polygon id="path-1" points="0.022826087 20.3096365 0.022826087 0.0294238683 11.2308152 0.0294238683 11.2308152 20.3096365"></polygon>
        <polygon id="path-3" points="37.3977273 20.3481481 0.0246212121 20.3481481 0.0246212121 0.191851852 37.3977273 0.191851852"></polygon>
        <polygon id="path-5" points="0.349242424 27.6809335 37.2545455 27.6809335 37.2545455 0.287663115 0.349242424 0.287663115 0.349242424 27.6809335"></polygon>
    </defs>
    <g id="Website" stroke="none" stroke-width="1" fill="none" fill-rule="evenodd">
        <g id="ONLINE-KASINO" transform="translate(-47.000000, -38.000000)">
            <g id="Spillemyndigheden_Logo_RGB_Blue" transform="translate(47.000000, 38.000000)">
                <g>
                    <g id="Group-3" transform="translate(0.000000, 39.925926)">
                        <mask id="mask-2" fill="white">
                            <use xlink:href="#path-1"></use>
                        </mask>
                        <g id="Clip-2"></g>
                        <path d="M4.65652174,20.3096365 C3.01304348,20.3096365 0.882608696,19.7966049 0.152173913,19.5551783 L0.152173913,15.8432442 L0.760869565,15.8432442 C1.36956522,17.6237654 2.76956522,19.2232167 4.77826087,19.2232167 C7.06086957,19.2232167 8.73478261,17.7444787 8.73478261,15.3905693 C8.73478261,10.9543553 0,9.68686557 0,4.88813443 C0,1.7797668 2.1,0.0294238683 5.56956522,0.0294238683 C7.30434783,0.0294238683 9.40434783,0.542455418 10.135163,0.753703704 L10.135163,4.01296296 L9.52646739,4.01296296 C8.52173913,2.38333333 7.42608696,1.08566529 5.4173913,1.08566529 C3.3173913,1.08566529 2.2826087,2.11135117 2.2826087,3.86207133 C2.2826087,7.78525377 11.2308152,9.17345679 11.2308152,14.3041495 C11.2308152,18.227332 8.2173913,20.3096365 4.65652174,20.3096365" id="Fill-1" fill="#101226" mask="url(#mask-2)"></path>
                    </g>
                    <path d="M20.3612207,47.3600163 C19.1284313,47.3600163 17.3957732,47.8457389 16.8085559,48.0282644 L16.8085559,58.8052342 C17.3664124,58.8963072 18.3059601,58.8963072 19.3339574,58.8963072 C21.8589919,58.8963072 23.5912829,57.0137527 23.5912829,52.7033442 C23.5912829,48.3621986 22.1522335,47.3600163 20.3612207,47.3600163 Z M19.4510338,59.8373947 C18.8344557,59.8373947 17.1315255,59.7766794 16.8085559,59.7159641 L16.8085559,63.9963943 C16.8085559,64.4821169 16.9847211,64.7253577 17.3957732,64.8767665 L19.4803947,65.5749927 L19.4803947,66 L12.2282609,66 L12.2282609,65.5749927 L13.8137476,64.9678395 C14.2247997,64.7856935 14.4009649,64.5731899 14.4009649,64.0874673 L14.4009649,49.1514978 C14.4009649,48.3621986 14.3716041,47.8457389 13.6963042,47.6336148 L12.2282609,47.1475127 L12.2282609,46.6314325 L16.8085559,45.6296296 L16.8085559,47.481447 C17.660021,46.9350091 20.067979,45.6296296 21.5360223,45.6296296 C24.442748,45.6296296 26.0869565,47.9064542 26.0869565,51.8533297 C26.0869565,57.5302124 23.3270351,59.8373947 19.4510338,59.8373947 Z" id="Fill-4" fill="#101226"></path>
                    <path d="M35.0543478,59.4814815 L35.0543478,59.0639413 L36.713138,58.4972795 C37.1597353,58.348158 37.4149338,57.9306178 37.4149338,57.453429 L37.4149338,42.57073 C37.4149338,41.7952982 37.383034,41.2879123 36.6493384,41.079515 L35.0543478,40.6023262 L35.0543478,40.095313 L40.0307183,39.1111111 L40.0307183,57.3937804 C40.0307183,57.8709692 40.2859168,58.348158 40.7325142,58.4972795 L42.3913043,59.0639413 L42.3913043,59.4814815 L35.0543478,59.4814815" id="Fill-5" fill="#101226"></path>
                    <path d="M43.2065217,59.4814815 L43.2065217,59.0639413 L44.8653119,58.4972795 C45.3119093,58.348158 45.5671078,57.9306178 45.5671078,57.453429 L45.5671078,42.57073 C45.5671078,41.7952982 45.5352079,41.2879123 44.801911,41.079515 L43.2065217,40.6023262 L43.2065217,40.095313 L48.1828922,39.1111111 L48.1828922,57.3937804 C48.1828922,57.8709692 48.4384895,58.348158 48.8850868,58.4972795 L50.5434783,59.0639413 L50.5434783,59.4814815 L43.2065217,59.4814815" id="Fill-6" fill="#101226"></path>
                    <path d="M59.4269818,49.2425521 C59.4269818,47.7600999 58.4934611,46.5250447 56.6565332,46.5250447 C54.3076747,46.5250447 53.4641182,48.6555149 53.2834368,51.34176 L59.4269818,51.34176 L59.4269818,49.2425521 Z M53.1934725,52.3301901 C53.1934725,52.3301901 53.2235861,52.3301901 53.2235861,52.5459388 C53.2235861,57.0234 54.8497189,58.7216009 58.3127796,58.7216009 C59.6076632,58.7216009 60.9025467,58.2584552 61.8059539,57.8261859 L61.8059539,58.5054662 C60.9326603,59.4008813 59.2463003,60.2962963 57.1684639,60.2962963 C52.6514282,60.2962963 50.5434783,57.5482984 50.5434783,52.9782082 C50.5434783,48.2232456 52.952564,45.6296296 56.7468739,45.6296296 C60.8724332,45.6296296 61.9565217,48.1614928 61.9565217,51.4965279 L61.9565217,52.3301901 L53.1934725,52.3301901 Z" id="Fill-7" fill="#101226"></path>
                    <g id="Group-11" transform="translate(63.586957, 45.629630)">
                        <mask id="mask-4" fill="white">
                            <use xlink:href="#path-3"></use>
                        </mask>
                        <g id="Clip-9"></g>
                        <path d="M16.4795455,13.8514815 L16.4795455,13.4366667 L18.055303,12.8737037 C18.5098485,12.6959259 18.7522727,12.3107407 18.7522727,11.8366667 L18.7522727,4.37 C18.7522727,2.68074074 18.2674242,1.76259259 16.5098485,1.76259259 C15.3280303,1.76259259 13.8734848,2.17740741 12.9037879,2.50333333 C13.025,2.97703704 13.055303,3.65888889 13.055303,4.28074074 L13.055303,11.8366667 C13.055303,12.3107407 13.2977273,12.6959259 13.7522727,12.8737037 L15.2977273,13.4366667 L15.2977273,13.8514815 L8.29772727,13.8514815 L8.29772727,13.4366667 L9.87348485,12.8737037 C10.3280303,12.6959259 10.5704545,12.3107407 10.5704545,11.8366667 L10.5704545,4.37 C10.5704545,2.68074074 10.0856061,1.76259259 8.29772727,1.76259259 C7.20643939,1.76259259 5.66098485,2.2362963 4.75189394,2.53296296 L4.75189394,11.8366667 C4.75189394,12.3107407 5.025,12.7255556 5.44886364,12.8737037 L7.02462121,13.4366667 L7.02462121,13.8514815 L0.0246212121,13.8514815 L0.0246212121,13.4366667 L1.60037879,12.8737037 C2.02462121,12.7255556 2.26704545,12.3107407 2.26704545,11.8366667 L2.26704545,3.59962963 C2.26704545,2.85888889 2.23674242,2.41407407 1.5094697,2.17740741 L0.0246212121,1.67333333 L0.0246212121,1.16962963 L4.75189394,0.191851852 L4.75189394,1.96962963 C5.57045455,1.46592593 8.20681818,0.191851852 9.3280303,0.191851852 C11.1765152,0.191851852 12.0856061,0.725185185 12.6310606,1.94 C13.6613636,1.28814815 16.2977273,0.191851852 17.4189394,0.191851852 C20.2068182,0.191851852 21.267803,1.31777778 21.267803,4.28074074 L21.267803,11.8366667 C21.267803,12.3107407 21.5102273,12.6959259 21.9643939,12.8737037 L23.5405303,13.4366667 L23.5405303,13.8514815 L16.4795455,13.8514815" id="Fill-8" fill="#101226" mask="url(#mask-4)"></path>
                        <path d="M36.3068182,1.67333333 C35.9128788,1.88074074 35.6704545,2.41407407 35.4886364,2.85888889 L28.3977273,20.3703704 L26.094697,20.3703704 C26.094697,20.3703704 28.9128788,14.3255556 29.1856061,13.7625926 L24.4276515,2.41407407 C24.3064394,2.14777778 24.1549242,1.88074074 23.9731061,1.79222222 L22.6397727,1.11037037 L22.6397727,0.725185185 L29.0037879,0.725185185 L29.0037879,1.11037037 L27.4583333,1.70296296 C27.2159091,1.79222222 27.0643939,2.05851852 27.0643939,2.35481481 C27.0643939,2.53296296 27.1549242,2.79925926 27.2159091,2.94740741 L30.2765152,10.9177778 C30.3977273,11.1848148 30.4886364,11.5107407 30.4886364,11.7177778 L30.5492424,11.7177778 C30.5492424,11.5107407 30.6401515,11.1551852 30.7310606,10.9177778 L33.6704545,2.97703704 C33.7613636,2.76962963 33.8522727,2.4737037 33.8522727,2.26592593 C33.8522727,1.96962963 33.7007576,1.76259259 33.4583333,1.67333333 L32.0643939,1.11037037 L32.0643939,0.725185185 L37.3977273,0.725185185 L37.3977273,1.11037037 L36.3068182,1.67333333" id="Fill-10" fill="#101226" mask="url(#mask-4)"></path>
                    </g>
                    <path d="M109.215001,59.4814815 L109.215001,59.1810156 L110.580017,58.7603634 C111.200478,58.5800839 111.231501,58.3397112 111.231501,57.5885465 L111.231501,49.6258256 C111.231501,47.9435924 110.890247,47.1319589 109.059886,47.1319589 C107.881009,47.1319589 106.298833,47.7629373 105.585302,48.0036855 L105.585302,57.5585 C105.585302,58.3096646 105.740417,58.5800839 106.236786,58.7303168 L107.601802,59.1810156 L107.601802,59.4814815 L101.086957,59.4814815 L101.086957,59.1810156 L102.451972,58.7303168 C102.917318,58.5800839 103.072433,58.3096646 103.072433,57.5585 L103.072433,48.9347541 C103.072433,48.1535429 103.04141,47.7328907 102.327879,47.4624714 L101.086957,46.981726 L101.086957,46.621167 L105.585302,45.6296296 L105.585302,47.5830333 C106.453948,46.9516794 108.687609,45.6296296 110.238763,45.6296296 C112.844701,45.6296296 113.744758,46.7713999 113.744758,49.7760585 L113.744758,57.5885465 C113.744758,58.3397112 113.837439,58.5800839 114.427265,58.7603634 L115.76087,59.1810156 L115.76087,59.4814815 L109.215001,59.4814815" id="Fill-12" fill="#101226"></path>
                    <g id="Group-16" transform="translate(115.760870, 38.296296)">
                        <mask id="mask-6" fill="white">
                            <use xlink:href="#path-5"></use>
                        </mask>
                        <g id="Clip-14"></g>
                        <path d="M9.95530303,8.18132116 C9.44015152,8.12060071 8.50075758,8.05988026 7.89469697,8.05988026 C4.19772727,8.05988026 2.83409091,10.2458163 2.83409091,13.8283227 C2.83409091,19.0810208 4.80378788,19.7489457 6.95530303,19.7489457 C7.71287879,19.7489457 9.28863636,19.4757037 9.95530303,19.3239026 L9.95530303,8.18132116 Z M11.2886364,21.3580375 C10.3492424,21.3580375 9.95530303,20.872274 9.95530303,19.7185855 C9.19772727,20.2347093 7.07651515,21.4491182 5.47045455,21.4491182 C2.89469697,21.4491182 0.349242424,19.7489457 0.349242424,14.2533658 C0.349242424,9.72969254 2.86439394,7.02763267 7.13712121,7.02763267 C7.89469697,7.02763267 9.16742424,7.17943379 9.95530303,7.39195535 L9.95530303,3.80944901 C9.95530303,3.02008321 9.925,2.50357991 9.2280303,2.29143785 L7.68257576,1.80567428 L7.68257576,1.28955048 L12.4098485,0.287663115 L12.4098485,18.291655 C12.4098485,19.0506606 12.4401515,19.6275048 13.1375,19.8096662 L15.0162879,20.2650695 L15.0162879,20.7811933 C14.2890152,21.0240751 12.1977273,21.3580375 11.2886364,21.3580375 Z" id="Fill-13" fill="#101226" mask="url(#mask-6)"></path>
                        <path d="M30.0723485,8.15096093 C28.1329545,8.15096093 27.2238636,9.00142669 27.2238636,11.9156286 C27.2238636,14.4662669 28.1026515,15.5592349 30.0723485,15.5592349 C32.0420455,15.5592349 32.9208333,14.4662669 32.9208333,11.9156286 C32.9208333,9.00142669 32.0117424,8.15096093 30.0723485,8.15096093 Z M33.1632576,21.2973171 L27.8602273,21.2973171 C27.617803,21.2973171 27.3753788,21.2669569 27.1632576,21.2365967 C26.6481061,21.7527204 26.1026515,22.6639066 26.1026515,24.0297372 C26.1026515,25.4870279 27.4056818,26.0946119 30.1632576,26.0946119 C33.617803,26.0946119 35.1026515,25.0016438 35.1026515,22.9974896 C35.1026515,21.9956022 34.5268939,21.2973171 33.1632576,21.2973171 Z M29.4056818,27.7037037 C27.0420455,27.7037037 24.1632576,26.6407164 24.1632576,24.4851405 C24.1632576,23.1189305 25.7087121,21.692 26.4662879,21.0544353 C25.5875,20.6901126 25.1632576,19.9311071 25.1632576,18.8988595 C25.1632576,18.2005743 26.0420455,16.9861654 26.8299242,16.0146383 C25.5875,15.3463338 24.7390152,14.071584 24.7390152,11.9156286 C24.7390152,8.33312227 27.4056818,7.02763267 30.0723485,7.02763267 C31.0420455,7.02763267 32.1632576,7.20979401 32.9814394,7.60447692 C33.7390152,6.75439066 35.1636364,5.38818062 36.0723485,5.38818062 C36.7393939,5.38818062 37.2545455,5.93466464 37.2545455,6.69367022 C37.2545455,6.96691223 37.1632576,7.30087468 37.0117424,7.63483714 C36.617803,7.51377575 36.2238636,7.4526758 35.8299242,7.4526758 C34.9511364,7.4526758 34.1026515,7.72591781 33.6784091,8.02952004 C34.7087121,8.78852562 35.4056818,10.063655 35.4056818,11.9156286 C35.4056818,15.5895951 32.8299242,16.6522029 30.0723485,16.6522029 C29.2238636,16.6522029 28.1329545,16.5303825 27.4056818,16.2878803 C27.1026515,16.864345 26.7996212,17.7148108 26.7996212,18.2309346 C26.7996212,18.8684992 27.2238636,19.2020822 28.1026515,19.2020822 L33.1935606,19.2020822 C35.4965909,19.2020822 37.0117424,20.0525479 37.0117424,22.0563227 C37.0117424,26.0946119 32.617803,27.7037037 29.4056818,27.7037037 Z" id="Fill-15" fill="#101226" mask="url(#mask-6)"></path>
                    </g>
                    <path d="M162.452096,59.4814815 L162.452096,59.0639413 L164.053318,58.4972795 C164.515209,58.3183337 164.761551,57.9306178 164.761551,57.453429 L164.761551,49.8776838 C164.761551,48.3566444 164.392038,47.342991 162.728845,47.342991 C161.189209,47.342991 159.834328,47.819807 158.879754,48.0885985 L158.879754,57.453429 C158.879754,57.9306178 159.12648,58.3183337 159.587986,58.4972795 L161.189209,59.0639413 L161.189209,59.4814815 L154.076087,59.4814815 L154.076087,59.0639413 L155.677309,58.4972795 C156.108407,58.348158 156.354749,57.9306178 156.354749,57.453429 L156.354749,42.6303786 C156.354749,41.8549468 156.323957,41.2879123 155.615724,41.079515 L154.076087,40.6023262 L154.076087,40.095313 L158.879754,39.1111111 L158.879754,47.521564 C160.019085,46.8952537 162.32854,45.7321059 163.745391,45.7321059 C166.485944,45.7321059 167.286555,47.1934967 167.286555,49.8478595 L167.286555,57.453429 C167.286555,57.9306178 167.532897,58.3183337 167.994788,58.4972795 L169.565217,59.0639413 L169.565217,59.4814815 L162.452096,59.4814815" id="Fill-17" fill="#101226"></path>
                    <path d="M178.448428,49.2425521 C178.448428,47.7600999 177.514938,46.5250447 175.678071,46.5250447 C173.32929,46.5250447 172.486137,48.6555149 172.305462,51.34176 L178.448428,51.34176 L178.448428,49.2425521 Z M172.215124,52.3301901 C172.215124,52.3301901 172.245237,52.3301901 172.245237,52.5459388 C172.245237,57.0234 173.871316,58.7216009 177.334263,58.7216009 C178.62948,58.7216009 179.924321,58.2584552 180.827698,57.8261859 L180.827698,58.5054662 C179.954433,59.4008813 178.267752,60.2962963 176.189985,60.2962963 C171.673098,60.2962963 169.565217,57.5482984 169.565217,52.9782082 C169.565217,48.2232456 171.974224,45.6296296 175.768408,45.6296296 C179.894208,45.6296296 180.978261,48.1614928 180.978261,51.4965279 L180.978261,52.3301901 L172.215124,52.3301901 Z" id="Fill-18" fill="#101226"></path>
                    <path d="M192.219254,47.013621 C191.703861,46.9528324 190.764028,46.8920439 190.157683,46.8920439 C186.458982,46.8920439 185.094708,49.0804312 185.094708,52.6669549 C185.094708,57.9255433 187.065327,58.5942173 189.217849,58.5942173 C189.97578,58.5942173 191.552275,58.3206688 192.219254,58.1686975 L192.219254,47.013621 Z M193.553212,60.2051135 C192.613378,60.2051135 192.219254,59.7188052 192.219254,58.563823 C191.461324,59.0805255 189.339118,60.2962963 187.732306,60.2962963 C185.155342,60.2962963 182.608696,58.5942173 182.608696,53.0924747 C182.608696,48.5637287 185.125025,45.8586388 189.399753,45.8586388 C190.157683,45.8586388 191.431006,46.0106101 192.219254,46.22337 L192.219254,42.6368463 C192.219254,41.8465953 192.188937,41.3295128 191.491641,41.1171328 L189.945463,40.6308245 L189.945463,40.114122 L194.674949,39.1111111 L194.674949,57.1352924 C194.674949,57.8951491 194.705266,58.4726402 195.402941,58.6550058 L197.282609,59.1109198 L197.282609,59.6276224 C196.554995,59.8707765 194.462728,60.2051135 193.553212,60.2051135 Z" id="Fill-19" fill="#101226"></path>
                    <path d="M206.98133,49.2425521 C206.98133,47.7600999 206.047809,46.5250447 204.210881,46.5250447 C201.862022,46.5250447 201.018842,48.6555149 200.838161,51.34176 L206.98133,51.34176 L206.98133,49.2425521 Z M200.74782,52.3301901 C200.74782,52.3301901 200.777934,52.3301901 200.777934,52.5459388 C200.777934,57.0234 202.404067,58.7216009 205.867127,58.7216009 C207.162011,58.7216009 208.457271,58.2584552 209.360302,57.8261859 L209.360302,58.5054662 C208.487385,59.4008813 206.800648,60.2962963 204.722812,60.2962963 C200.205776,60.2962963 198.097826,57.5482984 198.097826,52.9782082 C198.097826,48.2232456 200.506912,45.6296296 204.301222,45.6296296 C208.426781,45.6296296 209.51087,48.1614928 209.51087,51.4965279 L209.51087,52.3301901 L200.74782,52.3301901 Z" id="Fill-20" fill="#101226"></path>
                    <path d="M218.454305,59.4814815 L218.454305,59.1810156 L219.819284,58.7603634 C220.439729,58.5800839 220.470751,58.3397112 220.470751,57.5885465 L220.470751,49.6258256 C220.470751,47.9435924 220.129506,47.1319589 218.299194,47.1319589 C217.120348,47.1319589 215.538213,47.7629373 214.824701,48.0036855 L214.824701,57.5585 C214.824701,58.3096646 214.979813,58.5800839 215.476169,58.7303168 L216.841148,59.1810156 L216.841148,59.4814815 L210.326087,59.4814815 L210.326087,59.1810156 L211.691066,58.7303168 C212.156788,58.5800839 212.311899,58.3096646 212.311899,57.5585 L212.311899,48.9347541 C212.311899,48.1535429 212.280489,47.7328907 211.567365,47.4624714 L210.326087,46.981726 L210.326087,46.621167 L214.824701,45.6296296 L214.824701,47.5830333 C215.693324,46.9516794 217.926927,45.6296296 219.478039,45.6296296 C222.083908,45.6296296 222.983941,46.7713999 222.983941,49.7760585 L222.983941,57.5885465 C222.983941,58.3397112 223.07662,58.5800839 223.666043,58.7603634 L225,59.1810156 L225,59.4814815 L218.454305,59.4814815" id="Fill-21" fill="#101226"></path>
                    <path d="M27.7173913,59.4814815 L27.7173913,59.0608293 L29.3760913,58.4899441 C29.8230631,58.3397112 30.0782478,57.919059 30.0782478,57.4383136 L30.0782478,49.1154092 C30.0782478,48.334198 30.045951,47.853077 29.3122952,47.6130799 L27.7173913,47.1019124 L27.7173913,46.6515891 L32.6938901,45.6296296 L32.6938901,57.4383136 C32.6938901,57.919059 32.9490747,58.3397112 33.3952491,58.4899441 L35.0543478,59.0608293 L35.0543478,59.4814815 L27.7173913,59.4814815" id="Fill-22" fill="#101226"></path>
                    <path d="M29.3478261,40.7407407 C29.3478261,39.8407188 30.0778715,39.1111111 30.9780883,39.1111111 C31.8786502,39.1111111 32.6086957,39.8407188 32.6086957,40.7407407 C32.6086957,41.6407627 31.8786502,42.3703704 30.9780883,42.3703704 C30.0778715,42.3703704 29.3478261,41.6407627 29.3478261,40.7407407" id="Fill-23" fill="#101226"></path>
                    <path d="M132.065217,59.4814815 L132.065217,59.0608293 L133.723917,58.4899441 C134.17049,58.3397112 134.426074,57.919059 134.426074,57.4383136 L134.426074,49.1154092 C134.426074,48.334198 134.394176,47.853077 133.660121,47.6130799 L132.065217,47.1019124 L132.065217,46.6515891 L137.041716,45.6296296 L137.041716,57.4383136 C137.041716,57.919059 137.296901,58.3397112 137.743075,58.4899441 L139.402174,59.0608293 L139.402174,59.4814815 L132.065217,59.4814815" id="Fill-24" fill="#101226"></path>
                    <path d="M133.695652,40.7407407 C133.695652,39.8407188 134.42562,39.1111111 135.326087,39.1111111 C136.226554,39.1111111 136.956522,39.8407188 136.956522,40.7407407 C136.956522,41.6407627 136.226554,42.3703704 135.326087,42.3703704 C134.42562,42.3703704 133.695652,41.6407627 133.695652,40.7407407" id="Fill-25" fill="#101226"></path>
                    <path d="M97.5859355,26.0740741 L99.3236654,26.0740741 C99.3677043,25.2096574 99.6680349,23.6327009 99.1864952,22.7313214 C98.643951,21.7164919 97.4047265,20.7719282 96.2553845,19.6659726 C95.800557,19.1887502 94.7436245,18.4414433 94.7436245,17.1133451 C94.7436245,15.3523066 96.0301366,14.8802078 96.9058601,14.8480026 C97.214854,14.8355596 97.5263748,14.8787439 97.8252614,14.9713338 C97.9602658,14.3905424 98.1999527,13.7899888 98.5623708,13.2992256 C98.0505093,13.1180713 97.4884725,13.0269453 96.948455,13.0379243 C95.2785883,13.0737892 92.9347826,14.2339081 92.9347826,17.1133451 C92.9347826,19.0160133 94.1231098,20.1494165 95.2031446,21.2454909 C96.4192668,22.4799013 97.4058094,23.6509993 97.5859355,26.0740741" id="Fill-26" fill="#101226"></path>
                    <polygon id="Fill-27" fill="#101226" points="97.826087 29.3333333 123.097826 29.3333333 123.097826 27.7037037 97.826087 27.7037037"></polygon>
                    <polygon id="Fill-28" fill="#101226" points="97.826087 32.5925926 123.097826 32.5925926 123.097826 30.962963 97.826087 30.962963"></polygon>
                    <path d="M103.3143,26.0740741 L105.306969,26.0740741 C105.486623,24.5420578 106.076533,23.2181122 105.709946,22.0883658 C105.294328,20.8098874 103.631856,19.4531899 102.653525,18.3716081 C101.852167,17.4873079 101.349978,16.7043459 101.349978,15.6023423 C101.349978,14.3805053 102.317966,13.2615478 103.777801,13.2615478 C105.433761,13.2615478 106.40941,14.817839 108.423913,14.817839 L108.423913,12.9744874 C107.242945,12.8604339 106.093004,11.4074074 103.777801,11.4074074 C102.542438,11.4074074 101.425058,11.859383 100.631361,12.6824179 C99.8736721,13.4676918 99.4565217,14.5311639 99.4565217,15.6774789 C99.4565217,17.4260427 100.304612,18.5041567 101.126655,19.5464364 C102.187726,20.8915744 103.376356,22.4779202 103.3143,26.0740741" id="Fill-29" fill="#101226"></path>
                    <path d="M123.202633,14.8480026 C124.078402,14.8802078 125.36534,15.3523066 125.36534,17.1133451 C125.36534,18.4414433 124.308354,19.1887502 123.853503,19.6659726 C122.704103,20.7719282 121.464815,21.7164919 120.922243,22.7313214 C120.440679,23.6327009 120.741025,25.2096574 120.784705,26.0740741 L122.522884,26.0740741 C122.70302,23.6509993 123.689251,22.4799013 124.905436,21.2454909 C125.985525,20.1494165 127.173913,19.0160133 127.173913,17.1133451 C127.173913,14.2339081 124.830349,13.0737892 123.160397,13.0379243 C122.620352,13.0269453 122.058287,13.1180713 121.546038,13.2992256 C121.908475,13.7899888 122.148174,14.3905424 122.283185,14.9713338 C122.582448,14.8787439 122.893985,14.8355596 123.202633,14.8480026" id="Fill-30" fill="#101226"></path>
                    <path d="M112.5,14.817839 C114.514886,14.817839 115.490535,13.2615478 117.146495,13.2615478 C118.605947,13.2615478 119.573935,14.3805053 119.573935,15.6023423 C119.573935,16.7043459 119.072129,17.4873079 118.270388,18.3716081 C117.292057,19.4531899 115.629968,20.8098874 115.21435,22.0883658 C114.847763,23.2181122 115.437673,24.5420578 115.616944,26.0740741 L117.609613,26.0740741 C117.54794,22.4779202 118.73657,20.8915744 119.797258,19.5464364 C120.619684,18.5041567 121.467391,17.4260427 121.467391,15.6774789 C121.467391,14.5311639 121.050624,13.4676918 120.292935,12.6824179 C119.499239,11.859383 118.381475,11.4074074 117.146495,11.4074074 C114.830909,11.4074074 113.680968,12.8604339 112.5,12.9744874 L112.5,14.817839" id="Fill-31" fill="#101226"></path>
                    <path d="M109.408995,11.4074074 L109.408995,16.6271112 C109.408995,16.6234304 109.407753,16.6212219 109.407753,16.6212219 C109.407753,19.9460639 108.423913,20.7624593 108.423913,21.8769972 C108.423913,23.2650166 109.061733,23.7251132 109.406098,25.2592593 C109.407753,25.257787 109.407753,25.2566827 109.408995,25.2552104 L109.408995,25.2592593 L111.515332,25.2592593 L111.515332,25.2541062 C111.516988,25.2566827 111.516988,25.257787 111.518229,25.2592593 C111.862594,23.7251132 112.5,23.2650166 112.5,21.8769972 C112.5,20.7624593 111.516988,19.9460639 111.516988,16.6212219 C111.516988,16.6212219 111.516988,16.6260069 111.515332,16.6333685 L111.515332,11.4074074 L109.408995,11.4074074" id="Fill-32" fill="#101226"></path>
                    <path d="M110.463143,6.99246349 C111.037354,6.99246349 111.503209,7.44148244 111.503209,7.99306917 C111.503209,8.5446559 111.037354,8.99291509 110.463143,8.99291509 C109.887745,8.99291509 109.4211,8.5446559 109.4211,7.99306917 C109.4211,7.44148244 109.887745,6.99246349 110.463143,6.99246349 Z M109.583635,5.5458779 C108.523005,5.89726752 107.755412,6.85418692 107.755412,7.99306917 C107.755412,9.42939798 108.968295,10.5925926 110.463143,10.5925926 C111.956013,10.5925926 113.168501,9.42939798 113.168501,7.99306917 C113.168501,6.85418692 112.401304,5.89650775 111.339883,5.54549802 L111.339883,3.64799407 L113.315217,3.64799407 L113.315217,1.96208366 L111.339883,1.96208366 L111.339883,0 L109.583635,0 L109.583635,1.96208366 L107.608696,1.96208366 L107.608696,3.64799407 L109.583635,3.64799407 L109.583635,5.5458779 Z" id="Fill-33" fill="#101226"></path>
                </g>
            </g>
        </g>
    </g>
</svg>